<svg width="207" height="50" viewBox="0 0 207 50" fill="none" xmlns="http://www.w3.org/2000/svg">
<path d="M69.26 24.48C67.56 24.48 66.08 24.17 64.82 23.55C63.58 22.93 62.6 22.07 61.88 20.97C61.16 19.87 60.74 18.59 60.62 17.13L63.95 16.92C64.09 17.92 64.38 18.77 64.82 19.47C65.26 20.15 65.85 20.67 66.59 21.03C67.35 21.37 68.26 21.54 69.32 21.54C70.24 21.54 71.02 21.43 71.66 21.21C72.32 20.97 72.82 20.62 73.16 20.16C73.5 19.7 73.67 19.14 73.67 18.48C73.67 17.88 73.52 17.35 73.22 16.89C72.94 16.41 72.39 15.98 71.57 15.6C70.77 15.2 69.59 14.81 68.03 14.43C66.33 14.01 64.97 13.55 63.95 13.05C62.93 12.55 62.19 11.93 61.73 11.19C61.29 10.43 61.07 9.5 61.07 8.4C61.07 7.18 61.36 6.11 61.94 5.19C62.54 4.25 63.39 3.52 64.49 3C65.59 2.48 66.91 2.22 68.45 2.22C70.07 2.22 71.45 2.52 72.59 3.12C73.75 3.72 74.66 4.54 75.32 5.58C76 6.62 76.42 7.81 76.58 9.15L73.25 9.33C73.15 8.51 72.9 7.79 72.5 7.17C72.1 6.53 71.56 6.04 70.88 5.7C70.2 5.34 69.37 5.16 68.39 5.16C67.15 5.16 66.17 5.45 65.45 6.03C64.75 6.59 64.4 7.34 64.4 8.28C64.4 8.88 64.54 9.39 64.82 9.81C65.12 10.21 65.64 10.56 66.38 10.86C67.14 11.16 68.21 11.48 69.59 11.82C71.43 12.24 72.89 12.76 73.97 13.38C75.07 13.98 75.85 14.69 76.31 15.51C76.77 16.33 77 17.26 77 18.3C77 19.56 76.67 20.66 76.01 21.6C75.37 22.52 74.47 23.23 73.31 23.73C72.15 24.23 70.8 24.48 69.26 24.48ZM79.2395 24V8.04H82.4195V24H79.2395ZM79.1795 5.73V2.55H82.4795V5.73H79.1795ZM91.8423 28.86C90.5823 28.86 89.4723 28.67 88.5123 28.29C87.5523 27.91 86.7623 27.37 86.1423 26.67C85.5223 25.99 85.1023 25.19 84.8823 24.27L88.1823 24.06C88.4023 24.72 88.7823 25.24 89.3223 25.62C89.8823 26.02 90.7223 26.22 91.8423 26.22C93.1623 26.22 94.1723 25.94 94.8723 25.38C95.5923 24.82 95.9523 23.97 95.9523 22.83V20.52C95.5723 21.34 94.9623 21.99 94.1223 22.47C93.2823 22.95 92.3423 23.19 91.3023 23.19C89.9623 23.19 88.7723 22.86 87.7323 22.2C86.6923 21.54 85.8823 20.63 85.3023 19.47C84.7223 18.31 84.4323 16.97 84.4323 15.45C84.4323 13.91 84.7123 12.56 85.2723 11.4C85.8523 10.24 86.6523 9.33 87.6723 8.67C88.7123 8.01 89.8823 7.68 91.1823 7.68C92.3223 7.68 93.3223 7.94 94.1823 8.46C95.0623 8.98 95.6923 9.68 96.0723 10.56V8.04H99.1323V22.74C99.1323 24.06 98.8323 25.17 98.2323 26.07C97.6523 26.99 96.8123 27.68 95.7123 28.14C94.6323 28.62 93.3423 28.86 91.8423 28.86ZM91.8123 20.49C93.0523 20.49 94.0423 20.04 94.7823 19.14C95.5423 18.24 95.9323 17 95.9523 15.42C95.9723 14.38 95.8123 13.49 95.4723 12.75C95.1323 11.99 94.6423 11.41 94.0023 11.01C93.3823 10.59 92.6523 10.38 91.8123 10.38C90.5123 10.38 89.5023 10.84 88.7823 11.76C88.0823 12.66 87.7323 13.88 87.7323 15.42C87.7323 16.98 88.0923 18.22 88.8123 19.14C89.5523 20.04 90.5523 20.49 91.8123 20.49ZM102.445 24V8.04H105.355L105.475 12.3L105.085 12.09C105.265 11.05 105.605 10.21 106.105 9.57C106.605 8.93 107.215 8.46 107.935 8.16C108.655 7.84 109.435 7.68 110.275 7.68C111.475 7.68 112.465 7.95 113.245 8.49C114.045 9.01 114.645 9.73 115.045 10.65C115.465 11.55 115.675 12.58 115.675 13.74V24H112.495V14.7C112.495 13.76 112.395 12.97 112.195 12.33C111.995 11.69 111.665 11.2 111.205 10.86C110.745 10.52 110.145 10.35 109.405 10.35C108.285 10.35 107.375 10.72 106.675 11.46C105.975 12.2 105.625 13.28 105.625 14.7V24H102.445ZM125.394 24V2.7H129.834L136.164 20.19L142.494 2.7H146.934V24H143.694V8.4L137.964 23.97H134.364L128.634 8.4V24H125.394ZM154.731 24.36C153.071 24.36 151.741 23.98 150.741 23.22C149.761 22.46 149.271 21.39 149.271 20.01C149.271 18.63 149.681 17.56 150.501 16.8C151.341 16.02 152.631 15.46 154.371 15.12L159.861 14.07C159.861 12.83 159.571 11.91 158.991 11.31C158.411 10.69 157.551 10.38 156.411 10.38C155.391 10.38 154.591 10.61 154.011 11.07C153.431 11.51 153.031 12.17 152.811 13.05L149.541 12.84C149.841 11.24 150.581 9.98 151.761 9.06C152.961 8.14 154.511 7.68 156.411 7.68C158.571 7.68 160.211 8.26 161.331 9.42C162.471 10.56 163.041 12.17 163.041 14.25V20.46C163.041 20.84 163.101 21.11 163.221 21.27C163.361 21.41 163.581 21.48 163.881 21.48H164.451V24C164.351 24.02 164.191 24.04 163.971 24.06C163.751 24.08 163.521 24.09 163.281 24.09C162.601 24.09 162.011 23.98 161.511 23.76C161.031 23.54 160.671 23.18 160.431 22.68C160.191 22.16 160.071 21.47 160.071 20.61L160.401 20.76C160.241 21.46 159.891 22.08 159.351 22.62C158.831 23.16 158.161 23.59 157.341 23.91C156.541 24.21 155.671 24.36 154.731 24.36ZM155.241 21.84C156.201 21.84 157.021 21.66 157.701 21.3C158.381 20.92 158.911 20.4 159.291 19.74C159.671 19.08 159.861 18.33 159.861 17.49V16.47L155.181 17.37C154.221 17.55 153.541 17.84 153.141 18.24C152.761 18.62 152.571 19.11 152.571 19.71C152.571 20.39 152.801 20.92 153.261 21.3C153.741 21.66 154.401 21.84 155.241 21.84ZM165.789 24V2.7H168.969V15.93L176.139 8.04H180.159L173.919 14.76L180.399 24H176.739L171.789 16.74L168.969 19.74V24H165.789ZM187.741 24.36C186.181 24.36 184.831 24.02 183.691 23.34C182.571 22.66 181.701 21.69 181.081 20.43C180.481 19.17 180.181 17.7 180.181 16.02C180.181 14.34 180.481 12.88 181.081 11.64C181.701 10.38 182.571 9.41 183.691 8.73C184.811 8.03 186.131 7.68 187.651 7.68C189.091 7.68 190.361 8.02 191.461 8.7C192.561 9.36 193.411 10.32 194.011 11.58C194.631 12.84 194.941 14.36 194.941 16.14V16.95H183.481C183.561 18.51 183.971 19.68 184.711 20.46C185.471 21.24 186.491 21.63 187.771 21.63C188.711 21.63 189.491 21.41 190.111 20.97C190.731 20.53 191.161 19.94 191.401 19.2L194.701 19.41C194.281 20.89 193.451 22.09 192.211 23.01C190.991 23.91 189.501 24.36 187.741 24.36ZM183.481 14.55H191.581C191.481 13.13 191.071 12.08 190.351 11.4C189.651 10.72 188.751 10.38 187.651 10.38C186.511 10.38 185.571 10.74 184.831 11.46C184.111 12.16 183.661 13.19 183.481 14.55ZM196.964 24V8.04H199.874L199.994 12.27L199.724 12.18C199.944 10.74 200.384 9.69 201.044 9.03C201.724 8.37 202.634 8.04 203.774 8.04H205.304V10.89H203.774C202.974 10.89 202.304 11.02 201.764 11.28C201.224 11.54 200.814 11.94 200.534 12.48C200.274 13.02 200.144 13.72 200.144 14.58V24H196.964Z" fill="black"/>
<path d="M64.44 47.192C63.8533 47.192 63.3307 47.064 62.872 46.808C62.424 46.5413 62.0773 46.1787 61.832 45.72L61.784 47H60.2V35.64H61.896V39.688C62.12 39.3147 62.4507 38.9893 62.888 38.712C63.336 38.4347 63.8533 38.296 64.44 38.296C65.176 38.296 65.816 38.4773 66.36 38.84C66.904 39.2027 67.32 39.72 67.608 40.392C67.9067 41.0533 68.056 41.8373 68.056 42.744C68.056 43.6507 67.9067 44.44 67.608 45.112C67.32 45.7733 66.904 46.2853 66.36 46.648C65.816 47.0107 65.176 47.192 64.44 47.192ZM64.168 45.72C64.8187 45.72 65.336 45.4587 65.72 44.936C66.104 44.4027 66.296 43.672 66.296 42.744C66.296 41.816 66.104 41.0907 65.72 40.568C65.336 40.0347 64.824 39.768 64.184 39.768C63.704 39.768 63.2933 39.8853 62.952 40.12C62.6107 40.3547 62.3493 40.696 62.168 41.144C61.9867 41.5813 61.896 42.1147 61.896 42.744C61.896 43.352 61.9867 43.88 62.168 44.328C62.3493 44.776 62.6107 45.1227 62.952 45.368C63.2933 45.6027 63.6987 45.72 64.168 45.72ZM69.3525 49.4V48.008H70.3925C70.6805 48.008 70.8938 47.9653 71.0325 47.88C71.1712 47.7947 71.2778 47.6507 71.3525 47.448L71.6245 46.744H71.0965L68.0245 38.488H69.8165L72.1525 45.176L74.3765 38.488H76.1845L72.7925 47.992C72.6218 48.4827 72.3658 48.84 72.0245 49.064C71.6938 49.288 71.2298 49.4 70.6325 49.4H69.3525ZM85.0149 47.256C83.9909 47.256 83.0895 47.0213 82.3109 46.552C81.5322 46.072 80.9242 45.3893 80.4869 44.504C80.0495 43.6187 79.8309 42.5627 79.8309 41.336C79.8309 40.12 80.0442 39.0693 80.4709 38.184C80.9082 37.288 81.5162 36.6 82.2949 36.12C83.0735 35.6293 83.9855 35.384 85.0309 35.384C86.4389 35.384 87.5322 35.736 88.3109 36.44C89.0895 37.144 89.5962 38.12 89.8309 39.368L88.0229 39.464C87.8735 38.6853 87.5535 38.0773 87.0629 37.64C86.5722 37.192 85.8949 36.968 85.0309 36.968C84.3375 36.968 83.7349 37.144 83.2229 37.496C82.7215 37.848 82.3269 38.3493 82.0389 39C81.7615 39.6507 81.6229 40.4293 81.6229 41.336C81.6229 42.2427 81.7615 43.0213 82.0389 43.672C82.3269 44.3227 82.7269 44.8187 83.2389 45.16C83.7509 45.5013 84.3429 45.672 85.0149 45.672C85.9322 45.672 86.6415 45.432 87.1429 44.952C87.6549 44.4613 87.9749 43.7893 88.1029 42.936L89.9109 43.032C89.7722 43.896 89.4949 44.6427 89.0789 45.272C88.6629 45.9013 88.1135 46.392 87.4309 46.744C86.7482 47.0853 85.9429 47.256 85.0149 47.256ZM91.0463 47V35.64H92.7423V40.408L92.5343 40.376C92.6303 39.896 92.8063 39.5067 93.0623 39.208C93.3183 38.8987 93.6329 38.6693 94.0063 38.52C94.3796 38.3707 94.7903 38.296 95.2383 38.296C95.8569 38.296 96.3796 38.4347 96.8063 38.712C97.2329 38.9787 97.5529 39.3573 97.7663 39.848C97.9903 40.3387 98.1023 40.8987 98.1023 41.528V47H96.4063V41.976C96.4063 41.208 96.2729 40.6427 96.0063 40.28C95.7503 39.9067 95.3449 39.72 94.7903 39.72C94.1716 39.72 93.6756 39.9173 93.3023 40.312C92.9289 40.696 92.7423 41.2613 92.7423 42.008V47H91.0463ZM99.7031 47V38.488H101.399V47H99.7031ZM99.6711 37.256V35.56H101.431V37.256H99.6711ZM105.843 47C105.032 47 104.435 46.8133 104.051 46.44C103.667 46.0667 103.475 45.4853 103.475 44.696V36.488H105.171V44.568C105.171 44.9627 105.256 45.2347 105.427 45.384C105.597 45.5333 105.859 45.608 106.211 45.608H107.427V47H105.843ZM102.179 39.88V38.488H107.427V39.88H102.179ZM111.771 47.192C110.96 47.192 110.251 47.0107 109.643 46.648C109.035 46.2853 108.566 45.768 108.235 45.096C107.904 44.424 107.739 43.64 107.739 42.744C107.739 41.8373 107.904 41.0533 108.235 40.392C108.566 39.7307 109.035 39.2187 109.643 38.856C110.251 38.4827 110.96 38.296 111.771 38.296C112.582 38.296 113.291 38.4827 113.899 38.856C114.507 39.2187 114.976 39.7307 115.307 40.392C115.638 41.0533 115.803 41.8373 115.803 42.744C115.803 43.64 115.638 44.424 115.307 45.096C114.976 45.768 114.507 46.2853 113.899 46.648C113.291 47.0107 112.582 47.192 111.771 47.192ZM111.771 45.72C112.496 45.72 113.056 45.4587 113.451 44.936C113.846 44.4027 114.043 43.672 114.043 42.744C114.043 41.816 113.846 41.0907 113.451 40.568C113.056 40.0347 112.496 39.768 111.771 39.768C111.056 39.768 110.496 40.0347 110.091 40.568C109.696 41.0907 109.499 41.816 109.499 42.744C109.499 43.672 109.696 44.4027 110.091 44.936C110.496 45.4587 111.056 45.72 111.771 45.72ZM120.157 47.192C119.357 47.192 118.68 47.0693 118.125 46.824C117.581 46.5787 117.16 46.2427 116.861 45.816C116.562 45.3787 116.392 44.8773 116.349 44.312L118.093 44.232C118.178 44.7013 118.381 45.0747 118.701 45.352C119.021 45.6293 119.506 45.768 120.157 45.768C120.69 45.768 121.112 45.6827 121.421 45.512C121.73 45.3413 121.885 45.0693 121.885 44.696C121.885 44.4933 121.832 44.3227 121.725 44.184C121.629 44.0347 121.437 43.912 121.149 43.816C120.861 43.7093 120.434 43.608 119.869 43.512C119.026 43.352 118.365 43.1653 117.885 42.952C117.405 42.7387 117.064 42.4667 116.861 42.136C116.658 41.8053 116.557 41.4053 116.557 40.936C116.557 40.1573 116.845 39.5227 117.421 39.032C118.008 38.5413 118.85 38.296 119.949 38.296C120.685 38.296 121.304 38.424 121.805 38.68C122.306 38.9253 122.696 39.2613 122.973 39.688C123.261 40.104 123.442 40.5733 123.517 41.096L121.773 41.192C121.72 40.8933 121.613 40.6373 121.453 40.424C121.304 40.2 121.101 40.0293 120.845 39.912C120.589 39.784 120.285 39.72 119.933 39.72C119.389 39.72 118.984 39.8267 118.717 40.04C118.45 40.2533 118.317 40.5307 118.317 40.872C118.317 41.128 118.376 41.336 118.493 41.496C118.621 41.656 118.824 41.7893 119.101 41.896C119.378 41.992 119.746 42.0773 120.205 42.152C121.09 42.3013 121.784 42.488 122.285 42.712C122.786 42.9253 123.138 43.192 123.341 43.512C123.544 43.832 123.645 44.2213 123.645 44.68C123.645 45.2133 123.496 45.6667 123.197 46.04C122.898 46.4133 122.488 46.7013 121.965 46.904C121.442 47.096 120.84 47.192 120.157 47.192ZM128.225 47.192C127.393 47.192 126.673 47.0107 126.065 46.648C125.468 46.2853 125.004 45.768 124.673 45.096C124.353 44.424 124.193 43.64 124.193 42.744C124.193 41.848 124.353 41.0693 124.673 40.408C125.004 39.736 125.468 39.2187 126.065 38.856C126.663 38.4827 127.367 38.296 128.177 38.296C128.945 38.296 129.623 38.4773 130.209 38.84C130.796 39.192 131.249 39.704 131.569 40.376C131.9 41.048 132.065 41.8587 132.065 42.808V43.24H125.953C125.996 44.072 126.215 44.696 126.609 45.112C127.015 45.528 127.559 45.736 128.241 45.736C128.743 45.736 129.159 45.6187 129.489 45.384C129.82 45.1493 130.049 44.8347 130.177 44.44L131.937 44.552C131.713 45.3413 131.271 45.9813 130.609 46.472C129.959 46.952 129.164 47.192 128.225 47.192ZM125.953 41.96H130.273C130.22 41.2027 130.001 40.6427 129.617 40.28C129.244 39.9173 128.764 39.736 128.177 39.736C127.569 39.736 127.068 39.928 126.673 40.312C126.289 40.6853 126.049 41.2347 125.953 41.96ZM132.772 47V44.984H134.836V47H132.772ZM140.442 47.256C139.418 47.256 138.516 47.0213 137.738 46.552C136.959 46.072 136.351 45.3893 135.914 44.504C135.476 43.6187 135.258 42.5627 135.258 41.336C135.258 40.12 135.471 39.0693 135.898 38.184C136.335 37.288 136.943 36.6 137.722 36.12C138.5 35.6293 139.412 35.384 140.458 35.384C141.866 35.384 142.959 35.736 143.738 36.44C144.516 37.144 145.023 38.12 145.258 39.368L143.45 39.464C143.3 38.6853 142.98 38.0773 142.49 37.64C141.999 37.192 141.322 36.968 140.458 36.968C139.764 36.968 139.162 37.144 138.65 37.496C138.148 37.848 137.754 38.3493 137.466 39C137.188 39.6507 137.05 40.4293 137.05 41.336C137.05 42.2427 137.188 43.0213 137.466 43.672C137.754 44.3227 138.154 44.8187 138.666 45.16C139.178 45.5013 139.77 45.672 140.442 45.672C141.359 45.672 142.068 45.432 142.57 44.952C143.082 44.4613 143.402 43.7893 143.53 42.936L145.338 43.032C145.199 43.896 144.922 44.6427 144.506 45.272C144.09 45.9013 143.54 46.392 142.858 46.744C142.175 47.0853 141.37 47.256 140.442 47.256ZM146.473 47V38.488H148.169V47H146.473ZM146.441 37.256V35.56H148.201V37.256H146.441ZM152.613 47C151.802 47 151.205 46.8133 150.821 46.44C150.437 46.0667 150.245 45.4853 150.245 44.696V36.488H151.941V44.568C151.941 44.9627 152.026 45.2347 152.197 45.384C152.367 45.5333 152.629 45.608 152.981 45.608H154.197V47H152.613ZM148.949 39.88V38.488H154.197V39.88H148.949ZM155.579 49.4V48.008H156.619C156.907 48.008 157.121 47.9653 157.259 47.88C157.398 47.7947 157.505 47.6507 157.579 47.448L157.851 46.744H157.323L154.251 38.488H156.043L158.379 45.176L160.603 38.488H162.411L159.019 47.992C158.849 48.4827 158.593 48.84 158.251 49.064C157.921 49.288 157.457 49.4 156.859 49.4H155.579Z" fill="#5C5C5C"/>
<rect width="48" height="48" fill="#FFD701"/>
<path d="M14.1599 9.03915L9 14.1991L30.6273 14.0039L12.0761 32.5551L15.8777 36.3566L34.4288 17.8055L34.2337 39.4327L39.3936 34.2728L39.4327 9L14.1599 9.03915Z" fill="black"/>
</svg>
